<!DOCTYPE svg PUBLIC "-//W3C//DTD SVG 1.1//EN" "http://www.w3.org/Graphics/SVG/1.1/DTD/svg11.dtd">
<!-- Uploaded to: SVG Repo, www.svgrepo.com, Transformed by: SVG Repo Mixer Tools -->
<svg width="256px" height="256px" viewBox="0 0 24 24" fill="none" xmlns="http://www.w3.org/2000/svg" transform="rotate(0)">
<g id="SVGRepo_bgCarrier" stroke-width="0"/>
<g id="SVGRepo_tracerCarrier" stroke-linecap="round" stroke-linejoin="round" stroke="#CCCCCC" stroke-width="0.048"/>
<g id="SVGRepo_iconCarrier"> <circle cx="10" cy="6" r="4" stroke="#1C274C" stroke-width="1.5"/> <path opacity="0.5" d="M18 17.5C18 19.9853 18 22 10 22C2 22 2 19.9853 2 17.5C2 15.0147 5.58172 13 10 13C14.4183 13 18 15.0147 18 17.5Z" stroke="#1C274C" stroke-width="1.5"/> <path d="M19 2C19 2 21 3.2 21 6C21 8.8 19 10 19 10" stroke="#1C274C" stroke-width="1.5" stroke-linecap="round"/> <path d="M17 4C17 4 18 4.6 18 6C18 7.4 17 8 17 8" stroke="#1C274C" stroke-width="1.5" stroke-linecap="round"/> </g>
</svg>